<svg width="150" height="150" viewBox="0 0 150 150" fill="none" xmlns="http://www.w3.org/2000/svg">
<g clip-path="url(#clip0)">
<path d="M57.6481 78.3693C49.0574 78.3693 41.0837 74.1022 36.3185 66.9541L31.5575 59.8127C30.8843 58.8031 31.1573 57.4388 32.1669 56.7658C33.1765 56.0929 34.5408 56.3656 35.2138 57.3752L39.9748 64.5166C43.9231 70.4389 50.5296 73.9748 57.6478 73.9748H89.0496C90.2634 73.9748 91.2469 74.9583 91.2469 76.172C91.2469 77.3858 90.2634 78.3693 89.0496 78.3693H57.6481ZM121.49 80.3158C120.542 79.5576 119.159 79.7111 118.401 80.6588L111.96 88.7099C109.025 92.3784 104.648 94.4825 99.9498 94.4825H52.7341C51.5204 94.4825 50.5369 95.466 50.5369 96.6798C50.5369 97.8936 51.5204 98.8771 52.7341 98.8771H99.9495C105.99 98.8771 111.618 96.1721 115.392 91.4553L121.832 83.4043C122.591 82.4565 122.437 81.0737 121.49 80.3158Z" fill="#916050"/>
<path d="M93.7498 26.1012V64.098C93.7498 84.9031 76.7286 101.551 55.9232 101.607C55.6818 101.608 55.441 101.612 55.201 101.619C47.0448 101.86 40.6159 108.671 40.6159 116.831C40.6159 119.55 41.9747 122.088 44.2367 123.597L45.3843 124.362C47.6463 125.87 49.0051 128.409 49.0051 131.128V143.555H9.85425V131.307C9.85425 128.49 11.3121 125.874 13.7077 124.392L16.0218 122.96C17.784 121.87 19.0473 120.143 19.5981 118.146C24.0105 102.148 38.711 90.3722 56.104 90.4209C70.7345 90.4619 82.5634 78.4845 82.5634 63.8539V26.2351C82.5634 23.2022 84.9218 20.6194 87.9526 20.5116C91.1348 20.3985 93.7498 22.9444 93.7498 26.1012Z" fill="#A8867C"/>
<path d="M150 30.1644C150 37.0439 144.423 42.6211 137.543 42.6211H112.546C111.542 48.3665 106.533 52.7352 100.5 52.7352H10.0265C4.48915 52.7352 0 48.2461 0 42.7087C0 39.4313 1.60166 36.361 4.28964 34.4857L22.4129 21.8415C31.5486 15.4676 42.42 12.0502 53.5596 12.0502C59.9779 12.0502 66.3383 13.1869 72.3494 15.3976C78.5747 5.92831 89.2331 0.000976562 100.896 0.000976562C106.863 0.000976562 112.726 1.56338 117.901 4.5329L143.743 19.36C147.613 21.5807 150 25.7019 150 30.1644Z" fill="#38A169"/>
<path d="M150 30.1637C150 37.0432 144.423 42.6205 137.543 42.6205H112.545C111.542 48.3659 106.533 52.7346 100.5 52.7346H10.0268C4.60136 52.7346 0.185156 48.4245 0.00878906 43.042C1.27588 43.6207 2.6833 43.9456 4.16747 43.9456H94.6407C99.4818 43.9456 103.664 41.1325 105.646 37.0523C106.612 35.0625 108.664 33.8311 110.876 33.8311H131.684C138.564 33.8311 144.141 28.2542 144.141 21.3744C144.141 20.7463 144.089 20.1264 143.997 19.5161C147.715 21.7696 150 25.8012 150 30.1637Z" fill="#2F855A"/>
<path d="M72.49 150H12.8326C8.37797 150 4.76685 146.389 4.76685 141.934C4.76685 138.693 6.70747 135.766 9.6931 134.504L29.8142 126.002C34.235 124.134 38.9855 123.172 43.7846 123.172C51.1299 123.172 58.2983 125.426 64.3226 129.628L76.2731 137.966C78.0455 139.203 79.1017 141.227 79.1017 143.388C79.1014 147.04 76.1412 150 72.49 150Z" fill="#D2B48C"/>
<path d="M64.3228 129.629L70.2738 133.781C70.2982 134.01 70.3128 134.241 70.3128 134.474C70.3128 138.125 67.3527 141.085 63.7014 141.085H4.81714C5.12329 138.19 6.97133 135.655 9.69359 134.505L29.8146 126.003C34.2355 124.135 38.986 123.172 43.7851 123.172C51.1301 123.173 58.2985 125.426 64.3228 129.629Z" fill="#E6C8A0"/>
<path d="M66.1206 56.2507C66.1206 60.7806 62.4482 64.4533 57.9181 64.4533H20.8558C15.8095 64.4533 11.7188 60.3626 11.7188 55.3162C11.7188 54.2205 11.9159 53.1339 12.3006 52.1079L12.7204 50.9879C16.0134 42.2064 24.4084 36.3887 33.7869 36.3887C37.7159 36.3887 41.576 37.4176 44.9838 39.3728L62 49.1363C64.5488 50.5985 66.1206 53.3126 66.1206 56.2507ZM147.615 74.8135L137.537 67.7828C132.458 64.2388 126.413 62.3386 120.219 62.3386C116.172 62.3386 112.166 63.1501 108.438 64.7251L91.4711 71.8944C88.9534 72.9581 87.3171 75.4261 87.3171 78.1595C87.3171 81.9156 90.3622 84.9607 94.1187 84.9607H144.425C147.504 84.9607 150 82.4647 150 79.3856C150 77.5636 149.109 75.8565 147.615 74.8135Z" fill="#4ED68D"/>
<path d="M66.1206 56.2507C66.1206 60.7806 62.4482 64.4533 57.918 64.4533H53.743C54.9412 63.0274 55.6639 61.1887 55.6639 59.1804C55.6639 56.2419 54.0922 53.5282 51.5436 52.0657L34.5275 42.3022C31.1197 40.347 27.2592 39.318 23.3305 39.318C23.1096 39.318 22.8899 39.3242 22.6702 39.3306C25.9872 37.4445 29.7972 36.3884 33.7871 36.3884C37.7161 36.3884 41.5763 37.4173 44.9841 39.3725L62.0003 49.136C64.5488 50.5985 66.1206 53.3126 66.1206 56.2507ZM147.615 74.8135L137.537 67.7828C132.458 64.2388 126.413 62.3386 120.219 62.3386C117.64 62.3386 115.079 62.6694 112.595 63.316C116.051 64.2139 119.342 65.7168 122.303 67.7828L132.381 74.8135C133.875 75.8565 134.766 77.5636 134.766 79.3859C134.766 82.465 132.27 84.961 129.19 84.961H144.425C147.504 84.961 150 82.465 150 79.3859C150 77.5636 149.109 75.8565 147.615 74.8135Z" fill="#42C17D"/>
</g>
<defs>
<clipPath id="clip0">
<rect width="150" height="150" fill="white"/>
</clipPath>
</defs>
</svg>

